<svg xmlns="http://www.w3.org/2000/svg" viewBox="0 0 24 24" width="24" height="24" fill="currentColor">
  <path fill-rule="evenodd" d="M12 .297a12 12 0 0 0-3.792 23.39c.603.111.822-.262.822-.583 0-.287-.011-1.043-.015-2.046-3.338.724-4.042-1.609-4.042-1.609-.545-1.383-1.333-1.753-1.333-1.753-1.089-.743.083-.729.083-.729 1.205.085 1.839 1.236 1.839 1.236 1.07 1.834 2.807 1.305 3.493.998.109-.775.416-1.305.757-1.605-2.65-.303-5.44-1.325-5.44-5.89 0-1.303.465-2.368 1.235-3.203-.125-.303-.535-1.518.116-3.16 0 0 1.005-.32 3.3 1.227a11.51 11.51 0 0 1 6 0c2.292-1.547 3.297-1.227 3.297-1.227.654 1.642.244 2.857.119 3.16.77.835 1.234 1.9 1.234 3.203 0 4.576-2.794 5.582-5.451 5.877.428.369.812 1.096.812 2.213 0 1.601-.015 2.887-.015 3.279 0 .322.216.699.828.581A12 12 0 0 0 12 .297z"/>
</svg>
